<svg width="40" height="40" viewBox="0 0 40 40" fill="none" xmlns="http://www.w3.org/2000/svg">
<path d="M29.7628 28.2372L29.7625 28.2375L29.7679 28.2416L29.7689 28.2423C29.8681 28.3421 29.9469 28.4604 30.0007 28.5904C30.055 28.7215 30.0829 28.8619 30.0829 29.0037C30.0829 29.1456 30.055 29.286 30.0007 29.4171C29.9464 29.5481 29.8669 29.6672 29.7666 29.7675C29.6663 29.8678 29.5472 29.9473 29.4162 30.0016C29.2852 30.0559 29.1447 30.0838 29.0029 30.0838C28.861 30.0838 28.7206 30.0559 28.5895 30.0016C28.4585 29.9473 28.3394 29.8678 28.2391 29.7675L23.7832 25.3106L23.7541 25.2815L23.7215 25.3066C21.9914 26.6342 19.821 27.2541 17.6507 27.0404C15.4804 26.8267 13.4726 25.7954 12.0347 24.1558C10.5967 22.5162 9.83628 20.391 9.90762 18.2114C9.97895 16.0317 10.8767 13.9608 12.4188 12.4187C13.9609 10.8767 16.0318 9.97889 18.2114 9.90755C20.3911 9.83622 22.5163 10.5967 24.1559 12.0346C25.7955 13.4725 26.8267 15.4803 27.0404 17.6507C27.2541 19.821 26.6343 21.9913 25.3066 23.7215L25.2816 23.7541L25.3107 23.7831L29.7628 28.2372ZM12.0782 18.5V18.5C12.0799 20.2027 12.7571 21.8351 13.961 23.039C15.165 24.243 16.7974 24.9201 18.5 24.9219H18.5001C19.7702 24.9219 21.0118 24.5452 22.0679 23.8396C23.1239 23.1339 23.947 22.131 24.4331 20.9575C24.9192 19.7841 25.0463 18.4929 24.7985 17.2471C24.5507 16.0014 23.9391 14.8572 23.041 13.959C22.1429 13.0609 20.9986 12.4493 19.7529 12.2015C18.5072 11.9537 17.216 12.0809 16.0425 12.567C14.8691 13.053 13.8661 13.8761 13.1605 14.9322C12.4548 15.9883 12.0782 17.2299 12.0782 18.5Z" fill="#475569" stroke="#475569" stroke-width="0.09375"/>
</svg>
